<svg width="32" height="32" viewBox="0 0 32 32" fill="none" xmlns="http://www.w3.org/2000/svg">
<circle cx="16" cy="16" r="15.5" fill="white" stroke="#E0E0E0"/>
<path fill-rule="evenodd" clip-rule="evenodd" d="M13.5001 8.5L11.9751 10.1667H9.33341C8.41675 10.1667 7.66675 10.9167 7.66675 11.8333V21.8333C7.66675 22.75 8.41675 23.5 9.33341 23.5H22.6667C23.5834 23.5 24.3334 22.75 24.3334 21.8333V11.8333C24.3334 10.9167 23.5834 10.1667 22.6667 10.1667H20.0251L18.5001 8.5H13.5001ZM16.0001 21C13.7001 21 11.8334 19.1333 11.8334 16.8333C11.8334 14.5333 13.7001 12.6667 16.0001 12.6667C18.3001 12.6667 20.1667 14.5333 20.1667 16.8333C20.1667 19.1333 18.3001 21 16.0001 21ZM16.0001 19.4999C17.4728 19.4999 18.6667 18.306 18.6667 16.8332C18.6667 15.3604 17.4728 14.1665 16.0001 14.1665C14.5273 14.1665 13.3334 15.3604 13.3334 16.8332C13.3334 18.306 14.5273 19.4999 16.0001 19.4999Z" fill="#686868"/>
</svg>
